name C:\Users\u0101727\Documents\MyRepositories\upper-imu-dc\Results\main_tracking\Case_40\FLX01_orientations_groundFrame.mot
datacolumns 13
datarows 14
range 3.51000000 3.64000000
endheader 
time	radius_imu_[0][0]	radius_imu_[0][1]	radius_imu_[0][2]	radius_imu_[1][0]	radius_imu_[1][1]	radius_imu_[1][2]	radius_imu_[2][0]	radius_imu_[2][1]	radius_imu_[2][2]	radius_imu_x	radius_imu_y	radius_imu_z	
          3.51000000	          0.95355845	         -0.12705309	         -0.27310035	         -0.05339627	         -0.96362643	          0.26186437	         -0.29643740	         -0.23512044	         -0.92565828	         -2.86590117	         -0.27661443	          0.13246082	
          3.52000000	          0.95366030	         -0.12815998	         -0.27222611	         -0.05466362	         -0.96349126	          0.26210013	         -0.29587823	         -0.23507362	         -0.92584905	         -2.86571938	         -0.27570576	          0.13358710	
          3.53000000	          0.95366641	         -0.12926326	         -0.27168250	         -0.05579124	         -0.96331890	          0.26249577	         -0.29564795	         -0.23517590	         -0.92589664	         -2.86533728	         -0.27514086	          0.13472244	
          3.54000000	          0.95358050	         -0.13035082	         -0.27146436	         -0.05676975	         -0.96311140	          0.26304682	         -0.29573879	         -0.23542536	         -0.92580423	         -2.86476025	         -0.27491420	          0.13585418	
          3.55000000	          0.95342071	         -0.13140933	         -0.27151527	         -0.05760549	         -0.96287335	          0.26373571	         -0.29609215	         -0.23581032	         -0.92559329	         -2.86401183	         -0.27496710	          0.13696636	
          3.56000000	          0.95321791	         -0.13242512	         -0.27173370	         -0.05831956	         -0.96261146	          0.26453357	         -0.29660487	         -0.23631075	         -0.92530146	         -2.86313141	         -0.27519406	          0.13804075	
          3.57000000	          0.95301160	         -0.13338544	         -0.27198752	         -0.05894450	         -0.96233381	          0.26540381	         -0.29714379	         -0.23690074	         -0.92497763	         -2.86216941	         -0.27545781	          0.13905870	
          3.58000000	          0.95284419	         -0.13427939	         -0.27213413	         -0.05951890	         -0.96204900	          0.26630662	         -0.29756586	         -0.23755159	         -0.92467497	         -2.86118084	         -0.27561017	          0.14000287	
          3.59000000	          0.95275453	         -0.13509845	         -0.27204267	         -0.06008080	         -0.96176535	          0.26720349	         -0.29774000	         -0.23823480	         -0.92444312	         -2.86021854	         -0.27551513	          0.14085870	
          3.60000000	          0.95277186	         -0.13583642	         -0.27161415	         -0.06066115	         -0.96149027	          0.26806099	         -0.29756681	         -0.23892454	         -0.92432087	         -2.85932731	         -0.27506984	          0.14161537	
          3.61000000	          0.95291153	         -0.13648920	         -0.27079572	         -0.06127873	         -0.96122988	          0.26885319	         -0.29699250	         -0.23959929	         -0.92433091	         -2.85853984	         -0.27421954	          0.14226622	
          3.62000000	          0.95317331	         -0.13705460	         -0.26958612	         -0.06193785	         -0.96098882	          0.26956297	         -0.29601409	         -0.24024264	         -0.92447776	         -2.85787469	         -0.27296322	          0.14280888	
          3.63000000	          0.95354280	         -0.13753249	         -0.26803161	         -0.06262936	         -0.96077011	          0.27018207	         -0.29467557	         -0.24084352	         -0.92474900	         -2.85733657	         -0.27134930	          0.14324529	
          3.64000000	          0.95399499	         -0.13792530	         -0.26621453	         -0.06333424	         -0.96057514	          0.27071049	         -0.29305688	         -0.24139596	         -0.92511927	         -2.85691809	         -0.26946370	          0.14358166	
